<svg width="46" height="42" viewBox="0 0 46 42" fill="none" xmlns="http://www.w3.org/2000/svg">
<path id="&#195;&#141;cone Nuvem" d="M22.9968 23.4224V39.8241M22.9968 23.4224L14.7959 31.6232M22.9968 23.4224L31.1976 31.6232M6.5951 27.3157C5.07188 25.7595 3.9228 23.877 3.23488 21.8108C2.54697 19.7447 2.33827 17.5491 2.62459 15.3903C2.91091 13.2315 3.68474 11.1663 4.88748 9.35087C6.09021 7.53548 7.69029 6.0176 9.56654 4.9122C11.4428 3.8068 13.546 3.14287 15.7168 2.97071C17.8877 2.79854 20.0692 3.12265 22.0963 3.91848C24.1233 4.71431 25.9426 5.961 27.4165 7.56411C28.8903 9.16723 29.98 11.0847 30.603 13.1714H34.2729C36.2524 13.1711 38.1795 13.8076 39.7695 14.9867C41.3595 16.1658 42.5281 17.8251 43.1027 19.7193C43.6773 21.6136 43.6274 23.6425 42.9603 25.5062C42.2933 27.3699 41.0445 28.9697 39.3984 30.0692" stroke="#444746" stroke-width="4.10042" stroke-linecap="round" stroke-linejoin="round"/>
</svg>
