<svg width="17" height="22" viewBox="0 0 17 22" fill="none" xmlns="http://www.w3.org/2000/svg">
<path d="M2.83629 21.2929C2.29714 21.2929 1.83575 21.1011 1.45214 20.7175C1.06852 20.3338 0.876386 19.8721 0.875732 19.3323V9.52954C0.875732 8.99039 1.06787 8.529 1.45214 8.14539C1.83641 7.76177 2.29779 7.56964 2.83629 7.56898H3.81657V5.60843C3.81657 4.25237 4.29462 3.09662 5.25072 2.14118C6.20682 1.18573 7.36256 0.707685 8.71796 0.707032C10.0734 0.706378 11.2294 1.18443 12.1862 2.14118C13.1429 3.09793 13.6207 4.25368 13.6194 5.60843V7.56898H14.5996C15.1388 7.56898 15.6005 7.76112 15.9848 8.14539C16.369 8.52966 16.5608 8.99104 16.5602 9.52954V19.3323C16.5602 19.8715 16.3684 20.3332 15.9848 20.7175C15.6012 21.1017 15.1394 21.2935 14.5996 21.2929H2.83629ZM2.83629 19.3323H14.5996V9.52954H2.83629V19.3323ZM8.71796 16.3915C9.25712 16.3915 9.71883 16.1997 10.1031 15.8161C10.4874 15.4325 10.6792 14.9707 10.6785 14.4309C10.6779 13.8911 10.4861 13.4297 10.1031 13.0468C9.72013 12.6638 9.25842 12.4717 8.71796 12.4704C8.1775 12.4691 7.71612 12.6612 7.33381 13.0468C6.9515 13.4324 6.75937 13.8937 6.75741 14.4309C6.75544 14.9681 6.94758 15.4298 7.33381 15.8161C7.72004 16.2023 8.18142 16.3941 8.71796 16.3915ZM5.77713 7.56898H11.6588V5.60843C11.6588 4.79153 11.3729 4.09716 10.8011 3.52533C10.2292 2.9535 9.53486 2.66759 8.71796 2.66759C7.90106 2.66759 7.2067 2.9535 6.63487 3.52533C6.06304 4.09716 5.77713 4.79153 5.77713 5.60843V7.56898Z" fill="#E6E6E6"/>
</svg>
