<svg width="20" height="17" viewBox="0 0 20 17" fill="none" xmlns="http://www.w3.org/2000/svg">
<path d="M11 12.51L18 12.463V2.49597L12.83 2.50297L11.016 4.31697L11 12.51ZM9 4.31697L7.179 2.54197L2 2.50697V12.463L9 12.51V4.31697ZM8 0.546974L10 2.50397L12 0.503974L17.997 0.495974C18.2596 0.49558 18.5198 0.546921 18.7626 0.647066C19.0054 0.747211 19.2261 0.8942 19.4121 1.07964C19.5981 1.26508 19.7457 1.48533 19.8466 1.72784C19.9475 1.97034 19.9996 2.23033 20 2.49297V12.463C20 12.991 19.7912 13.4976 19.4192 13.8723C19.0471 14.2469 18.542 14.4593 18.014 14.463L12 14.504L10.004 16.504L8 14.504L1.986 14.463C1.458 14.4593 0.952878 14.2469 0.580828 13.8723C0.208778 13.4976 -1.2936e-05 12.991 6.0112e-10 12.463V2.50697C6.0112e-10 1.97654 0.210714 1.46783 0.585786 1.09276C0.960859 0.717688 1.46957 0.506974 2 0.506974L8 0.546974Z" fill="#2D3130"/>
</svg>
