<svg width="22" height="21" viewBox="0 0 22 21" fill="none" xmlns="http://www.w3.org/2000/svg">
<path d="M8.24995 20.0891L7.84995 16.8891C7.63329 16.8058 7.42928 16.7058 7.23795 16.5891C7.04662 16.4724 6.85895 16.3474 6.67495 16.2141L3.69995 17.4641L0.949951 12.7141L3.52495 10.7641C3.50828 10.6474 3.49995 10.5351 3.49995 10.4271V9.75211C3.49995 9.64345 3.50828 9.53078 3.52495 9.41411L0.949951 7.46411L3.69995 2.71411L6.67495 3.96411C6.85828 3.83078 7.04995 3.70578 7.24995 3.58911C7.44995 3.47244 7.64995 3.37244 7.84995 3.28911L8.24995 0.0891113H13.75L14.15 3.28911C14.3666 3.37244 14.571 3.47244 14.763 3.58911C14.955 3.70578 15.1423 3.83078 15.325 3.96411L18.2999 2.71411L21.0499 7.46411L18.475 9.41411C18.4916 9.53078 18.5 9.64345 18.5 9.75211V10.4261C18.5 10.5348 18.4833 10.6474 18.45 10.7641L21.025 12.7141L18.275 17.4641L15.325 16.2141C15.1416 16.3474 14.95 16.4724 14.75 16.5891C14.55 16.7058 14.35 16.8058 14.15 16.8891L13.75 20.0891H8.24995ZM9.99995 18.0891H11.975L12.325 15.4391C12.8416 15.3058 13.321 15.1101 13.763 14.8521C14.205 14.5941 14.609 14.2814 14.975 13.9141L17.45 14.9391L18.4249 13.2391L16.275 11.6141C16.3583 11.3808 16.4166 11.1351 16.45 10.8771C16.4833 10.6191 16.5 10.3564 16.5 10.0891C16.5 9.82178 16.4833 9.55945 16.45 9.30211C16.4166 9.04478 16.3583 8.79878 16.275 8.56411L18.4249 6.93911L17.45 5.23911L14.975 6.28911C14.6083 5.90578 14.2043 5.58511 13.763 5.32711C13.3216 5.06911 12.8423 4.87311 12.325 4.73911L12 2.08911H10.025L9.67495 4.73911C9.15829 4.87244 8.67928 5.06844 8.23795 5.32711C7.79662 5.58578 7.39228 5.89811 7.02495 6.26411L4.54995 5.23911L3.57495 6.93911L5.72495 8.53911C5.64162 8.78911 5.58328 9.03911 5.54995 9.28911C5.51662 9.53911 5.49995 9.80578 5.49995 10.0891C5.49995 10.3558 5.51662 10.6141 5.54995 10.8641C5.58328 11.1141 5.64162 11.3641 5.72495 11.6141L3.57495 13.2391L4.54995 14.9391L7.02495 13.8891C7.39162 14.2724 7.79595 14.5934 8.23795 14.8521C8.67995 15.1108 9.15895 15.3064 9.67495 15.4391L9.99995 18.0891ZM11.05 13.5891C12.0166 13.5891 12.8416 13.2474 13.525 12.5641C14.2083 11.8808 14.55 11.0558 14.55 10.0891C14.55 9.12245 14.2083 8.29744 13.525 7.61411C12.8416 6.93078 12.0166 6.58911 11.05 6.58911C10.0666 6.58911 9.23728 6.93078 8.56195 7.61411C7.88662 8.29744 7.54928 9.12245 7.54995 10.0891C7.55062 11.0558 7.88828 11.8808 8.56295 12.5641C9.23762 13.2474 10.0666 13.5891 11.05 13.5891Z" fill="#3F4A48"/>
</svg>
