<svg width="19" height="18" viewBox="0 0 19 18" fill="none" xmlns="http://www.w3.org/2000/svg">
<path d="M2.75 16H4.175L13.95 6.225L12.525 4.8L2.75 14.575V16ZM0.75 18V13.75L13.95 0.575C14.15 0.391667 14.371 0.25 14.613 0.15C14.855 0.0500001 15.109 0 15.375 0C15.641 0 15.8993 0.0500001 16.15 0.15C16.4007 0.25 16.6173 0.4 16.8 0.6L18.175 2C18.375 2.18333 18.521 2.4 18.613 2.65C18.705 2.9 18.7507 3.15 18.75 3.4C18.75 3.66667 18.7043 3.921 18.613 4.163C18.5217 4.405 18.3757 4.62567 18.175 4.825L5 18H0.75ZM13.225 5.525L12.525 4.8L13.95 6.225L13.225 5.525Z" fill="#747876"/>
</svg>
