<svg width="21" height="17" viewBox="0 0 21 17" fill="none" xmlns="http://www.w3.org/2000/svg">
<path d="M2.83629 16.3625C2.29714 16.3625 1.83575 16.1707 1.45214 15.7871C1.06852 15.4035 0.876386 14.9417 0.875732 14.4019V2.6386C0.875732 2.09944 1.06787 1.63806 1.45214 1.25444C1.83641 0.870828 2.29779 0.678693 2.83629 0.67804H18.5208C19.0599 0.67804 19.5216 0.870174 19.9059 1.25444C20.2902 1.63871 20.482 2.1001 20.4813 2.6386V14.4019C20.4813 14.9411 20.2895 15.4028 19.9059 15.7871C19.5223 16.1713 19.0606 16.3632 18.5208 16.3625H2.83629ZM10.6785 9.50055L2.83629 4.59915V14.4019H18.5208V4.59915L10.6785 9.50055ZM10.6785 7.53999L18.5208 2.6386H2.83629L10.6785 7.53999ZM2.83629 4.59915V2.6386V14.4019V4.59915Z" fill="#E6E6E6"/>
</svg>
