<svg width="18" height="19" viewBox="0 0 18 19" fill="none" xmlns="http://www.w3.org/2000/svg">
<path d="M17.469 9.122L9.369 1.022C9.03152 0.687272 8.57533 0.499621 8.1 0.500001H1.8C1.32261 0.500001 0.864774 0.689643 0.527208 1.02721C0.189643 1.36477 5.65137e-07 1.82261 5.65137e-07 2.3V8.6C-0.000187642 8.83752 0.046635 9.07273 0.13777 9.29207C0.228904 9.51141 0.362549 9.71055 0.531 9.878L8.631 17.978C8.96848 18.3127 9.42467 18.5004 9.9 18.5C10.3766 18.498 10.833 18.307 11.169 17.969L17.469 11.669C17.807 11.333 17.998 10.8766 18 10.4C18.0002 10.1625 17.9534 9.92727 17.8622 9.70793C17.7711 9.48859 17.6374 9.28945 17.469 9.122ZM9.9 16.7L1.8 8.6V2.3H8.1L16.2 10.4M4.05 3.2C4.317 3.2 4.57801 3.27918 4.80002 3.42752C5.02203 3.57586 5.19506 3.7867 5.29724 4.03338C5.39942 4.28006 5.42615 4.5515 5.37406 4.81337C5.32197 5.07525 5.1934 5.31579 5.00459 5.50459C4.81579 5.6934 4.57525 5.82197 4.31337 5.87406C4.0515 5.92615 3.78006 5.89942 3.53338 5.79724C3.2867 5.69506 3.07586 5.52203 2.92752 5.30002C2.77918 5.07801 2.7 4.817 2.7 4.55C2.7 4.19196 2.84223 3.84858 3.09541 3.59541C3.34858 3.34223 3.69196 3.2 4.05 3.2Z" fill="#2D3130"/>
</svg>
