<svg width="19" height="20" viewBox="0 0 19 20" fill="none" xmlns="http://www.w3.org/2000/svg">
<path d="M1.75 5H17.75M7.75 9V15M11.75 9V15M2.75 5L3.75 17C3.75 17.5304 3.96071 18.0391 4.33579 18.4142C4.71086 18.7893 5.21957 19 5.75 19H13.75C14.2804 19 14.7891 18.7893 15.1642 18.4142C15.5393 18.0391 15.75 17.5304 15.75 17L16.75 5M6.75 5V2C6.75 1.73478 6.85536 1.48043 7.04289 1.29289C7.23043 1.10536 7.48478 1 7.75 1H11.75C12.0152 1 12.2696 1.10536 12.4571 1.29289C12.6446 1.48043 12.75 1.73478 12.75 2V5" stroke="#747876" stroke-width="2" stroke-linecap="round" stroke-linejoin="round"/>
</svg>
