<svg width="20" height="19" viewBox="0 0 20 19" fill="none" xmlns="http://www.w3.org/2000/svg">
<path d="M10.1 15.9431L10 16.0431L9.89 15.9431C5.14 11.6331 2 8.78311 2 5.89311C2 3.89311 3.5 2.39311 5.5 2.39311C7.04 2.39311 8.54 3.39311 9.07 4.75311H10.93C11.46 3.39311 12.96 2.39311 14.5 2.39311C16.5 2.39311 18 3.89311 18 5.89311C18 8.78311 14.86 11.6331 10.1 15.9431ZM14.5 0.393112C12.76 0.393112 11.09 1.20311 10 2.47311C8.91 1.20311 7.24 0.393112 5.5 0.393112C2.42 0.393112 0 2.80311 0 5.89311C0 9.66311 3.4 12.7531 8.55 17.4231L10 18.7431L11.45 17.4231C16.6 12.7531 20 9.66311 20 5.89311C20 2.80311 17.58 0.393112 14.5 0.393112Z" fill="#FE6A6A"/>
</svg>
