<svg width="21" height="19" viewBox="0 0 21 19" fill="none" xmlns="http://www.w3.org/2000/svg">
<path d="M10.6 16.1641L10.5 16.2641L10.39 16.1641C5.64 11.8541 2.5 9.00407 2.5 6.11407C2.5 4.11407 4 2.61407 6 2.61407C7.54 2.61407 9.04 3.61407 9.57 4.97407H11.43C11.96 3.61407 13.46 2.61407 15 2.61407C17 2.61407 18.5 4.11407 18.5 6.11407C18.5 9.00407 15.36 11.8541 10.6 16.1641ZM15 0.614075C13.26 0.614075 11.59 1.42407 10.5 2.69407C9.41 1.42407 7.74 0.614075 6 0.614075C2.92 0.614075 0.5 3.02407 0.5 6.11407C0.5 9.88407 3.9 12.9741 9.05 17.6441L10.5 18.9641L11.95 17.6441C17.1 12.9741 20.5 9.88407 20.5 6.11407C20.5 3.02407 18.08 0.614075 15 0.614075Z" fill="black"/>
</svg>
