<svg width="62" height="62" viewBox="0 0 62 62" fill="none" xmlns="http://www.w3.org/2000/svg">
<path id="&#195;&#141;cone" d="M10.1711 0.375H52.0789C54.6439 0.375 57.1037 1.39391 58.9174 3.20759C60.7311 5.02126 61.75 7.48113 61.75 10.0461V51.9539C61.75 54.5189 60.7311 56.9787 58.9174 58.7924C57.1037 60.6061 54.6439 61.625 52.0789 61.625H10.1711C7.60613 61.625 5.14626 60.6061 3.33259 58.7924C1.51891 56.9787 0.5 54.5189 0.5 51.9539V10.0461C0.5 7.48113 1.51891 5.02126 3.33259 3.20759C5.14626 1.39391 7.60613 0.375 10.1711 0.375ZM10.1711 3.59868C8.4611 3.59868 6.82119 4.27796 5.61207 5.48707C4.40296 6.69619 3.72368 8.3361 3.72368 10.0461V47.4086L17.5533 33.5467L25.6125 41.6059L41.7309 25.4875L58.5263 42.2829V10.0461C58.5263 8.3361 57.847 6.69619 56.6379 5.48707C55.4288 4.27796 53.7889 3.59868 52.0789 3.59868H10.1711ZM25.6125 46.1836L17.5533 38.1243L3.72368 51.9539C3.72368 53.6639 4.40296 55.3038 5.61207 56.5129C6.82119 57.722 8.4611 58.4013 10.1711 58.4013H52.0789C53.7889 58.4013 55.4288 57.722 56.6379 56.5129C57.847 55.3038 58.5263 53.6639 58.5263 51.9539V46.8283L41.7309 30.0651L25.6125 46.1836ZM18.2303 10.0461C20.3677 10.0461 22.4176 10.8951 23.929 12.4065C25.4404 13.9179 26.2895 15.9678 26.2895 18.1053C26.2895 20.2427 25.4404 22.2926 23.929 23.804C22.4176 25.3154 20.3677 26.1645 18.2303 26.1645C16.0928 26.1645 14.0429 25.3154 12.5315 23.804C11.0201 22.2926 10.1711 20.2427 10.1711 18.1053C10.1711 15.9678 11.0201 13.9179 12.5315 12.4065C14.0429 10.8951 16.0928 10.0461 18.2303 10.0461ZM18.2303 13.2697C16.9478 13.2697 15.7179 13.7792 14.811 14.686C13.9042 15.5929 13.3947 16.8228 13.3947 18.1053C13.3947 19.3877 13.9042 20.6177 14.811 21.5245C15.7179 22.4313 16.9478 22.9408 18.2303 22.9408C19.5127 22.9408 20.7427 22.4313 21.6495 21.5245C22.5563 20.6177 23.0658 19.3877 23.0658 18.1053C23.0658 16.8228 22.5563 15.5929 21.6495 14.686C20.7427 13.7792 19.5127 13.2697 18.2303 13.2697Z" fill="#989898"/>
</svg>
