<svg width="22" height="20" viewBox="0 0 22 20" fill="none" xmlns="http://www.w3.org/2000/svg">
<path id="Vector" d="M10.9994 10.9987V18.9987M10.9994 10.9987L6.99936 14.9987M10.9994 10.9987L14.9994 14.9987M2.99936 12.8977C2.2564 12.1386 1.69593 11.2204 1.3604 10.2126C1.02486 9.20484 0.923069 8.13392 1.06272 7.08098C1.20238 6.02803 1.57982 5.02068 2.16646 4.13521C2.7531 3.24975 3.53355 2.50939 4.44869 1.97023C5.36384 1.43106 6.38969 1.10723 7.44853 1.02326C8.50737 0.93928 9.57143 1.09737 10.5601 1.48554C11.5488 1.87371 12.4362 2.48179 13.1551 3.26371C13.874 4.04564 14.4055 4.98091 14.7094 5.99868H16.4994C17.4649 5.99857 18.4048 6.309 19.1804 6.88412C19.9559 7.45924 20.5259 8.26854 20.8061 9.19248C21.0864 10.1164 21.062 11.106 20.7367 12.0151C20.4113 12.9241 19.8022 13.7044 18.9994 14.2407" stroke="#444746" stroke-width="2" stroke-linecap="round" stroke-linejoin="round"/>
</svg>
