<svg width="18" height="19" viewBox="0 0 18 19" fill="none" xmlns="http://www.w3.org/2000/svg">
<path d="M9 12.0891L12 9.08911M12 9.08911L9 6.08911M12 9.08911H1M6 4.33811V4.28911C6 3.16911 6 2.60911 6.218 2.18111C6.41 1.80411 6.715 1.49911 7.092 1.30711C7.52 1.08911 8.08 1.08911 9.2 1.08911H13.8C14.92 1.08911 15.48 1.08911 15.907 1.30711C16.284 1.49911 16.59 1.80411 16.782 2.18111C17 2.60811 17 3.16811 17 4.28611V13.8931C17 15.0111 17 15.5701 16.782 15.9971C16.59 16.3736 16.2837 16.6795 15.907 16.8711C15.48 17.0891 14.921 17.0891 13.803 17.0891H9.197C8.079 17.0891 7.519 17.0891 7.092 16.8711C6.71569 16.6794 6.40974 16.3734 6.218 15.9971C6 15.5691 6 15.0091 6 13.8891V13.8391" stroke="#BE3333" stroke-width="2" stroke-linecap="round" stroke-linejoin="round"/>
</svg>
