<svg width="21" height="23" viewBox="0 0 21 23" fill="none" xmlns="http://www.w3.org/2000/svg">
<path id="Vector" d="M21 1.6V3.8C21 5.84217 20.1849 7.80069 18.7339 9.24472C17.283 10.6888 15.3151 11.5 13.2632 11.5H12.1579V12.6H17.6842V20.3C17.6842 20.8835 17.4513 21.4431 17.0368 21.8556C16.6222 22.2682 16.06 22.5 15.4737 22.5H6.63158C6.04531 22.5 5.48305 22.2682 5.0685 21.8556C4.65395 21.4431 4.42105 20.8835 4.42105 20.3V12.6H9.94737V9.3C9.94737 7.25784 10.7625 5.29931 12.2134 3.85528C13.6644 2.41125 15.6323 1.6 17.6842 1.6H21ZM3.86842 0.500003C5.19471 0.498933 6.50184 0.815025 7.67976 1.42166C8.85769 2.0283 9.87191 2.90773 10.6371 3.9859C9.4697 5.51361 8.83905 7.38072 8.8421 9.3V10.4H8.28947C6.09097 10.4 3.98251 9.53081 2.42793 7.98363C0.873353 6.43646 0 4.33804 0 2.15V0.500003H3.86842Z" fill="white"/>
</svg>
