<svg width="26" height="26" viewBox="0 0 26 26" fill="none" xmlns="http://www.w3.org/2000/svg">
<path d="M17.0625 0.197021L26 4.66577V14.6316L24.375 13.8191V6.4812L17.875 9.7312V13.0066L16.25 13.8191V9.7312L9.75 6.4812V9.36304L8.125 8.55054V4.66577L17.0625 0.197021ZM17.0625 8.32202L19.3096 7.19214L13.4316 3.82788L10.7529 5.17358L17.0625 8.32202ZM21.0615 6.32886L23.3721 5.17358L17.0625 2.01245L15.1709 2.9646L21.0615 6.32886ZM14.625 14.6316L13 15.4441V15.4314L8.125 17.8689V23.6453L13 21.1951V23.0232L7.3125 25.8669L0 22.198V13.616L7.3125 9.95972L14.625 13.616V14.6316ZM6.5 23.6453V17.8689L1.625 15.4314V21.1951L6.5 23.6453ZM7.3125 16.4597L11.9971 14.1238L7.3125 11.7751L2.62793 14.1238L7.3125 16.4597ZM14.625 16.447L20.3125 13.6033L26 16.447V23.1375L20.3125 25.9812L14.625 23.1375V16.447ZM19.5 23.7595V19.8875L16.25 18.2625V22.1345L19.5 23.7595ZM24.375 22.1345V18.2625L21.125 19.8875V23.7595L24.375 22.1345ZM20.3125 18.4783L23.3721 16.9421L20.3125 15.4187L17.2529 16.9421L20.3125 18.4783Z" fill="#3F4A48"/>
</svg>
